<?xml version="1.0" encoding="utf-8"?>
<!DOCTYPE svg PUBLIC "-//W3C//DTD SVG 20010904//EN" "http://www.w3.org/TR/2001/REC-SVG-20010904/DTD/svg10.dtd">
<svg version="1.0" xmlns="http://www.w3.org/2000/svg" width="237px" height="237px" viewBox="0 0 237 237" preserveAspectRatio="xMidYMid meet">
 <g fill="#000000">
  <path d="M7 195 l0 -35 35 0 35 0 0 35 0 35 -35 0 -35 0 0 -35z m44.3 1.3 c3.7 -5.4 6.7 -10.1 6.7 -10.5 0 -0.5 -1.8 -0.8 -4 -0.8 -2.8 0 -4 0.4 -4 1.4 0 0.8 0.5 1.6 1.2 1.8 1.1 0.4 -6.8 12.8 -8.2 12.8 -1.4 0 -9.3 -12.4 -8.2 -12.8 0.7 -0.2 1.2 -1 1.2 -1.8 0 -1 -1.2 -1.4 -4 -1.4 -2.2 0 -4 0.3 -4 0.8 0 1.9 13.5 20.2 15 20.2 1 0 4.4 -4.1 8.3 -9.7z"/>
  <path d="M7 119 l0 -35 35 0 35 0 0 35 0 35 -35 0 -35 0 0 -35z m47.3 0.7 c2 -5 3.7 -9.5 3.7 -9.9 0 -0.5 -1.6 -0.8 -3.5 -0.8 -2.4 0 -3.5 0.5 -3.5 1.4 0 0.8 0.5 1.6 1 1.8 1.1 0.3 -1.8 9.8 -3 9.8 -1.2 0 -4.1 -9.5 -3 -9.8 0.5 -0.2 1 -1 1 -1.8 0 -1.1 -2 -1.4 -10 -1.4 -8.2 0 -10 0.3 -10 1.5 0 1.2 1.3 1.5 5.7 1.5 l5.7 0 -5.7 5.8 c-3.8 3.8 -5.7 6.6 -5.7 8.2 0 2.2 0.8 1.6 7 -4.5 7.9 -7.8 7.5 -7.9 11.2 1.8 1.4 3.4 2.9 5.7 3.8 5.7 1 0 2.9 -3.4 5.3 -9.3z"/>
  <path d="M7 43 l0 -35 35 0 35 0 0 35 0 35 -35 0 -35 0 0 -35z m32.5 3.7 c1.7 -4.7 3.3 -8.9 3.7 -9.2 0.3 -0.3 1.8 3.1 3.3 7.7 2.9 8.8 4.8 11.9 6.4 10.3 0.8 -0.8 9.1 -23.8 9.1 -25.1 0 -0.2 -1.6 -0.4 -3.5 -0.4 -2.4 0 -3.5 0.5 -3.5 1.4 0 0.8 0.5 1.6 1.1 1.8 1.3 0.4 -2.6 13.8 -4 13.8 -0.4 0 -1.4 -1.9 -2 -4.2 -2.3 -7.7 -5.1 -12.8 -6.9 -12.8 -1.4 0 -2.5 2.1 -4.6 8.5 -1.5 4.7 -3 8.5 -3.4 8.5 -1.4 0 -5.6 -13.4 -4.4 -13.8 0.7 -0.2 1.2 -1 1.2 -1.8 0 -0.9 -1.1 -1.4 -3.5 -1.4 -1.9 0 -3.5 0.2 -3.5 0.4 0 0.4 6.2 18.5 7.9 22.9 0.6 1.6 1.7 2.7 2.3 2.5 0.7 -0.3 2.6 -4.3 4.3 -9.1z"/>
  <path d="M83 43 l0 -35 35 0 35 0 0 35 0 35 -35 0 -35 0 0 -35z m31.4 4.2 c1.5 -4.5 3.1 -8.2 3.5 -8.2 0.4 0 2 3.8 3.6 8.5 2.2 6.3 3.4 8.5 4.7 8.5 1 0 1.8 -0.3 1.7 -0.7 0 -0.5 -1.9 -6.2 -4.3 -12.8 -2.6 -7.2 -4.8 -12 -5.6 -12 -1.5 0 -10.3 23.2 -9.4 24.7 1.3 2.1 3.1 -0.3 5.8 -8z"/>
  <path d="M159 43 l0 -35 35 0 35 0 0 35 0 35 -35 0 -35 0 0 -35z m40.7 0.5 c2.6 -7.2 3.9 -12.3 3.4 -12.8 -1.7 -1.7 -2.9 0.2 -5.6 8.3 -1.5 4.4 -3 8 -3.4 8 -0.4 0 -2 -3.8 -3.6 -8.5 -2.2 -6.3 -3.4 -8.5 -4.7 -8.5 -1 0 -1.8 0.2 -1.8 0.4 0 0.4 6.2 18.5 7.9 22.9 0.6 1.6 1.6 2.7 2.3 2.5 0.6 -0.2 3.1 -5.8 5.5 -12.3z"/>
 </g>
</svg>